<svg id="CD_Projekt_RED_logo" data-name="CD Projekt RED logo" xmlns="http://www.w3.org/2000/svg" viewBox="0 0 586.9 129.21"><defs><style>.cls-1,.cls-2{fill:#fff;}.cls-1{fill-rule:evenodd;}</style></defs><title>GOG-White.64</title><g id="logo_white" data-name="logo white"><path class="cls-1" d="M127.16,0H8.61A8.62,8.62,0,0,0,0,8.61v112a8.62,8.62,0,0,0,8.61,8.62H127.16a8.62,8.62,0,0,0,8.62-8.62V8.61A8.62,8.62,0,0,0,127.16,0ZM40.46,83H24.66a2.23,2.23,0,0,0-2.23,2.24v0h0V96.48h0a2.24,2.24,0,0,0,2.23,2.25h15.8v7.52H20.75v0a5.83,5.83,0,0,1-5.84-5.83V81.25a5.83,5.83,0,0,1,5.84-5.81H40.46ZM46.16,62a5.91,5.91,0,0,1-5.91,5.92H14.9V60.32H36.27A2.28,2.28,0,0,0,38.54,58V32.85a2.26,2.26,0,0,0-2.27-2.27H24.78a2.26,2.26,0,0,0-2.26,2.27V44.3h0a2.27,2.27,0,0,0,2.26,2.28H34v7.62H20.81A5.9,5.9,0,0,1,14.9,48.3V28.86A5.91,5.91,0,0,1,20.81,23H40.25a5.92,5.92,0,0,1,5.91,5.91Zm31.11,38.39a5.82,5.82,0,0,1-5.82,5.83H52.3a5.82,5.82,0,0,1-5.83-5.83V81.25a5.82,5.82,0,0,1,5.83-5.81H71.45a5.82,5.82,0,0,1,5.82,5.81Zm.34-46.2H58.16a5.9,5.9,0,0,1-5.9-5.91V28.86A5.91,5.91,0,0,1,58.16,23H77.61a5.92,5.92,0,0,1,5.91,5.91V48.3A5.91,5.91,0,0,1,77.61,54.21Zm43.25,52h-7.51V83h-5.28a2.24,2.24,0,0,0-2.24,2.24v21H98.32V83H93a2.24,2.24,0,0,0-2.24,2.24v21.07H83.29v-25a5.82,5.82,0,0,1,5.83-5.81h31.74Zm0-44.22A5.91,5.91,0,0,1,115,67.94H89.62V60.32H111A2.29,2.29,0,0,0,113.27,58V32.85A2.27,2.27,0,0,0,111,30.58H99.51a2.26,2.26,0,0,0-2.26,2.27V44.3h0a2.27,2.27,0,0,0,2.26,2.28h9.17v7.62H95.53a5.9,5.9,0,0,1-5.91-5.91V28.86A5.91,5.91,0,0,1,95.53,23H115a5.92,5.92,0,0,1,5.91,5.91Z"/><path class="cls-1" d="M73.63,30.58a2.25,2.25,0,0,1,2.25,2.27V44.3h0a2.25,2.25,0,0,1-2.25,2.28H62.15a2.27,2.27,0,0,1-2.27-2.28h0V32.85a2.26,2.26,0,0,1,2.27-2.27H73.63"/><path class="cls-1" d="M67.54,83a2.23,2.23,0,0,1,2.22,2.24V96.48a2.23,2.23,0,0,1-2.22,2.25H56.22A2.24,2.24,0,0,1,54,96.48V85.19A2.24,2.24,0,0,1,56.22,83H67.54"/><path class="cls-2" d="M215.72,93.53a37.24,37.24,0,0,1-11.2,1.61,35.63,35.63,0,0,1-13-2.24,28.3,28.3,0,0,1-9.9-6.25A27.17,27.17,0,0,1,175.3,77a33.75,33.75,0,0,1-2.21-12.39,34.53,34.53,0,0,1,2.15-12.46,27.47,27.47,0,0,1,6.11-9.65A26.85,26.85,0,0,1,191,36.28a34.54,34.54,0,0,1,12.68-2.21,38.68,38.68,0,0,1,6.58.52,29.14,29.14,0,0,1,5.63,1.5,27,27,0,0,1,4.79,2.37,30.42,30.42,0,0,1,4.13,3.15l-2.29,3.67a2.41,2.41,0,0,1-1.4,1.07,2.45,2.45,0,0,1-1.9-.4c-.66-.39-1.43-.86-2.29-1.42a20.28,20.28,0,0,0-3.14-1.6,24.86,24.86,0,0,0-4.38-1.32,28.93,28.93,0,0,0-6-.54,24.34,24.34,0,0,0-9.13,1.64,19.39,19.39,0,0,0-7,4.72,20.75,20.75,0,0,0-4.41,7.42,29.07,29.07,0,0,0-1.54,9.77A29.51,29.51,0,0,0,183,74.69a20.94,20.94,0,0,0,4.59,7.54A19.41,19.41,0,0,0,194.77,87a26.6,26.6,0,0,0,9.55,1.63,29.7,29.7,0,0,0,3.89-.25,28.56,28.56,0,0,0,3.48-.7,24.2,24.2,0,0,0,3.21-1.08c1-.43,2.07-.92,3.13-1.48V71.92h-9.3a1.8,1.8,0,0,1-1.27-.46,1.5,1.5,0,0,1-.48-1.13V65.75h18.34V88.68A33.39,33.39,0,0,1,215.72,93.53Z"/><path class="cls-2" d="M296.19,64.62a34.38,34.38,0,0,1-2.13,12.32,27.94,27.94,0,0,1-6,9.65,26.82,26.82,0,0,1-9.31,6.28,33.51,33.51,0,0,1-24,0,26.83,26.83,0,0,1-9.29-6.28,28.11,28.11,0,0,1-6-9.65,34.6,34.6,0,0,1-2.12-12.32,34.68,34.68,0,0,1,2.12-12.32,28.58,28.58,0,0,1,6-9.67,27,27,0,0,1,9.29-6.31,33.23,33.23,0,0,1,24,0,27,27,0,0,1,9.31,6.31,28.4,28.4,0,0,1,6,9.67A34.46,34.46,0,0,1,296.19,64.62Zm-8.29,0a30.42,30.42,0,0,0-1.5-9.88,20.72,20.72,0,0,0-4.26-7.39,18.25,18.25,0,0,0-6.67-4.65,24.19,24.19,0,0,0-17.46,0,18.49,18.49,0,0,0-6.69,4.65A20.6,20.6,0,0,0,247,54.74a30.42,30.42,0,0,0-1.5,9.88,30.27,30.27,0,0,0,1.5,9.87,20.69,20.69,0,0,0,4.28,7.37A18.3,18.3,0,0,0,258,86.48a24.33,24.33,0,0,0,17.46,0,18.06,18.06,0,0,0,6.67-4.62,20.8,20.8,0,0,0,4.26-7.37A30.27,30.27,0,0,0,287.9,64.62Z"/><path class="cls-2" d="M349.94,93.53a37.12,37.12,0,0,1-11.19,1.61,35.73,35.73,0,0,1-13-2.24,28.48,28.48,0,0,1-9.9-6.25A27.28,27.28,0,0,1,309.53,77a33.54,33.54,0,0,1-2.21-12.39,34.53,34.53,0,0,1,2.15-12.46,27.45,27.45,0,0,1,6.1-9.65,27,27,0,0,1,9.63-6.23,34.49,34.49,0,0,1,12.67-2.21,38.8,38.8,0,0,1,6.59.52,29.14,29.14,0,0,1,5.63,1.5,27,27,0,0,1,4.79,2.37A30.42,30.42,0,0,1,359,41.61l-2.29,3.67a2.41,2.41,0,0,1-1.4,1.07,2.45,2.45,0,0,1-1.9-.4c-.66-.39-1.43-.86-2.29-1.42a20,20,0,0,0-3.15-1.6,24.73,24.73,0,0,0-4.37-1.32,29,29,0,0,0-6-.54,24.41,24.41,0,0,0-9.13,1.64,19.44,19.44,0,0,0-7,4.72,20.91,20.91,0,0,0-4.42,7.42,29.32,29.32,0,0,0-1.54,9.77,29.51,29.51,0,0,0,1.61,10.07,20.78,20.78,0,0,0,4.58,7.54A19.57,19.57,0,0,0,329,87a26.68,26.68,0,0,0,9.55,1.63,29.74,29.74,0,0,0,3.9-.25,28.56,28.56,0,0,0,3.48-.7,24.2,24.2,0,0,0,3.21-1.08c1-.43,2.07-.92,3.13-1.48V71.92H343a1.78,1.78,0,0,1-1.27-.46,1.5,1.5,0,0,1-.48-1.13V65.75h18.34V88.68A33.32,33.32,0,0,1,349.94,93.53Z"/><path class="cls-2" d="M373.63,89.88a5.28,5.28,0,0,1,.39-2,5.46,5.46,0,0,1,1.08-1.67,5.21,5.21,0,0,1,1.65-1.13,5.19,5.19,0,0,1,4.09,0,5.53,5.53,0,0,1,1.67,1.13,5.38,5.38,0,0,1,1.12,1.67,5,5,0,0,1,.42,2,5,5,0,0,1-.42,2.07,5.67,5.67,0,0,1-1.12,1.65,5.27,5.27,0,0,1-1.67,1.1,5.43,5.43,0,0,1-4.09,0,5,5,0,0,1-1.65-1.1A5.75,5.75,0,0,1,374,92,5.37,5.37,0,0,1,373.63,89.88Z"/><path class="cls-2" d="M439.62,82.13a1.51,1.51,0,0,1,1.16.55L444,86.13a25.37,25.37,0,0,1-8.9,6.63,30.35,30.35,0,0,1-12.65,2.38,29.33,29.33,0,0,1-11.67-2.24,25.45,25.45,0,0,1-9-6.25A28.1,28.1,0,0,1,396.05,77a36.19,36.19,0,0,1-2-12.39,34.93,34.93,0,0,1,2.12-12.38,28.36,28.36,0,0,1,6-9.67,26.92,26.92,0,0,1,9.23-6.28,30.88,30.88,0,0,1,11.88-2.22,29,29,0,0,1,11.26,2,28.49,28.49,0,0,1,8.59,5.54l-2.67,3.71a2.26,2.26,0,0,1-.65.69,1.8,1.8,0,0,1-1.06.27,3.35,3.35,0,0,1-1.84-.81A26.37,26.37,0,0,0,434,43.7a22.42,22.42,0,0,0-4.38-1.82,22.16,22.16,0,0,0-6.46-.81,21.48,21.48,0,0,0-8.46,1.61,18.31,18.31,0,0,0-6.61,4.64,21.27,21.27,0,0,0-4.31,7.42,29.6,29.6,0,0,0-1.55,9.88,28.84,28.84,0,0,0,1.61,10A22,22,0,0,0,408.24,82a18.36,18.36,0,0,0,6.55,4.61,20.78,20.78,0,0,0,8.15,1.59,33.48,33.48,0,0,0,4.82-.32,19.18,19.18,0,0,0,3.95-1,16.91,16.91,0,0,0,3.38-1.68,25.69,25.69,0,0,0,3.11-2.44A2.13,2.13,0,0,1,439.62,82.13Z"/><path class="cls-2" d="M510.16,64.62A34.38,34.38,0,0,1,508,76.94a28.11,28.11,0,0,1-6,9.65,26.73,26.73,0,0,1-9.31,6.28,33.48,33.48,0,0,1-24,0,26.87,26.87,0,0,1-9.3-6.28,28.24,28.24,0,0,1-6-9.65,34.38,34.38,0,0,1-2.13-12.32,34.46,34.46,0,0,1,2.13-12.32,28.71,28.71,0,0,1,6-9.67,27.09,27.09,0,0,1,9.3-6.31,33.21,33.21,0,0,1,24,0A26.94,26.94,0,0,1,502,42.63a28.58,28.58,0,0,1,6,9.67A34.46,34.46,0,0,1,510.16,64.62Zm-8.29,0a30.42,30.42,0,0,0-1.5-9.88,20.85,20.85,0,0,0-4.25-7.39,18.42,18.42,0,0,0-6.67-4.65,24.22,24.22,0,0,0-17.47,0,18.58,18.58,0,0,0-6.69,4.65A20.59,20.59,0,0,0,461,54.74a30.42,30.42,0,0,0-1.5,9.88,30.27,30.27,0,0,0,1.5,9.87,20.67,20.67,0,0,0,4.27,7.37A18.38,18.38,0,0,0,472,86.48a24.36,24.36,0,0,0,17.47,0,18.22,18.22,0,0,0,6.67-4.62,20.93,20.93,0,0,0,4.25-7.37A30.27,30.27,0,0,0,501.87,64.62Z"/><path class="cls-2" d="M555.09,75c.31.73.61,1.46.92,2.18.28-.75.57-1.49.87-2.23s.64-1.44,1-2.1l20.26-36.73a2.26,2.26,0,0,1,1.11-1.17,5.36,5.36,0,0,1,1.69-.2h6V94.47h-7.09V50.57c0-.58,0-1.2,0-1.87s.07-1.35.13-2.05L559.51,84a3.1,3.1,0,0,1-2.92,1.87h-1.17A3.08,3.08,0,0,1,552.51,84L531.58,46.53c.08.73.15,1.43.19,2.12s.06,1.34.06,1.92v43.9h-7.09V34.74h6a5.18,5.18,0,0,1,1.67.2,2.4,2.4,0,0,1,1.13,1.17l20.63,36.76C554.46,73.54,554.78,74.24,555.09,75Z"/></g></svg>